<?xml version="1.0" standalone="no"?>
<!DOCTYPE svg PUBLIC "-//W3C//DTD SVG 20010904//EN"
 "http://www.w3.org/TR/2001/REC-SVG-20010904/DTD/svg10.dtd">
<svg version="1.0" xmlns="http://www.w3.org/2000/svg"
 width="700.000000pt" height="700.000000pt" viewBox="0 0 700.000000 700.000000"
 preserveAspectRatio="xMidYMid meet">
<metadata>
Created by potrace 1.11, written by Peter Selinger 2001-2013
</metadata>
<g transform="translate(0.000000,700.000000) scale(0.100000,-0.100000)"
fill="#000000" stroke="none">
<path d="M1750 6315 l0 -185 751 -1315 752 -1315 -752 -1315 -751 -1315 0
-185 0 -185 125 0 125 0 0 65 0 65 625 0 625 0 0 -65 0 -65 250 0 250 0 0 65
0 65 625 0 625 0 0 -65 0 -65 125 0 125 0 0 186 0 187 -751 1313 -750 1314
750 1314 751 1313 0 187 0 186 -125 0 -125 0 0 -65 0 -65 -625 0 -625 0 0 65
0 65 -250 0 -250 0 0 -65 0 -65 -625 0 -625 0 0 65 0 65 -125 0 -125 0 0 -185z
m3248 -194 c-1 -4 -40 -73 -86 -153 l-83 -144 -664 -664 -663 -663 -447 278
-446 279 -304 533 c-168 293 -305 535 -305 538 0 3 675 5 1501 5 825 0 1499
-4 1497 -9z m-739 -3945 c407 -714 741 -1300 741 -1302 0 -2 -197 -4 -437 -4
l-438 0 -312 312 -313 313 -313 -313 -312 -312 -438 0 c-274 0 -437 4 -435 10
2 5 338 596 748 1314 553 968 748 1301 756 1293 6 -7 345 -596 753 -1311z"/>
</g>
</svg>
